#!OML:ASF E:\Steps\Project 1\Capture day 1\Session 2\Subject.ASF
:FULLY-SPECIFIED
:DEGREES
786
root 8.86075 24.5648 -16.8599 -151.139 3.84913 178.953
lowerback -20.6491 -1.8421 -8.10859
upperback 0.986772 0.0172215 -1.68222
thorax 12.8157 -0.37061 2.75629
lowerneck -2.11379 -3.12244 -2.39608
upperneck 18.7857 -3.83263 5.43786
head 6.17727 -1.18325 1.94779
rclavicle -1.23246e-014 -2.62396e-014
rhumerus -41.4061 -9.39411 -78.7432
rradius 47.7016
rwrist -10.0932
rhand -5.44396 -52.0208
rfingers 7.12502
rthumb 20.3668 279.027
lclavicle -1.23246e-014 -2.62396e-014
lhumerus -25.588 -8.67727 78.2096
lradius 35.1304
lwrist -1.86992
lhand -21.0364 -10.1621
lfingers 7.12502
lthumb 5.33925 19.7506
rfemur -44.2642 0.934504 18.7462
rtibia 63.6757
rfoot -370.938 -11.9184
rtoes -43.0624
lfemur -51.5778 -6.40902 -20.3096
ltibia 35.832
lfoot 350.12 4.43802
ltoes -29.2819
787
root 8.84433 24.6066 -16.9113 -151.44 3.88597 179.07
lowerback -20.3747 -1.84558 -7.95934
upperback 1.02161 -0.0801715 -1.57537
thorax 12.706 -0.413628 2.76171
lowerneck -2.2734 -3.05149 -2.37261
upperneck 19.0267 -3.70929 5.31249
head 6.27379 -1.11929 1.91204
rclavicle 9.14409e-015 3.49861e-014
rhumerus -42.0185 -9.81085 -78.4578
rradius 48.1575
rwrist -9.76147
rhand -5.63203 -52.3037
rfingers 7.12502
rthumb 20.1861 278.725
lclavicle 9.14409e-015 3.49861e-014
lhumerus -25.7021 -8.46969 78.2718
lradius 35.199
lwrist -1.78791
lhand -21.136 -9.95098
lfingers 7.12502
lthumb 5.243 19.9642
rfemur -44.8865 1.24066 18.8211
rtibia 64.8242
rfoot -372.163 -11.7349
rtoes -42.2475
lfemur -50.5037 -6.44309 -20.2611
ltibia 34.883
lfoot 350.239 4.53656
ltoes -27.9699
788
root 8.83029 24.6475 -16.9601 -151.731 4.04722 178.953
lowerback -20.3878 -1.88522 -8.05524
upperback 1.26036 -0.111491 -1.55177
thorax 12.9961 -0.45789 2.82755
lowerneck -2.70953 -3.02519 -2.48395
upperneck 19.2429 -3.67787 5.29731
head 6.41925 -1.10811 1.92451
rclavicle -1.59028e-015 2.94201e-014
rhumerus -41.2238 -9.59895 -78.4928
rradius 46.8012
rwrist -10.0995
rhand -6.09806 -52.0884
rfingers 7.12502
rthumb 19.7381 278.894
lclavicle -1.59028e-015 2.94201e-014
lhumerus -25.4823 -8.22177 78.2735
lradius 35.3268
lwrist -1.56987
lhand -21.07 -9.80917
lfingers 7.12502
lthumb 5.30678 20.1044
rfemur -45.5852 1.54796 18.6055
rtibia 65.8992
rfoot -373.585 -11.5258
rtoes -42.3645
lfemur -49.4294 -6.49148 -20.4919
ltibia 33.9415
lfoot 350.305 4.64544
ltoes -27.8422
789
root 8.81635 24.6812 -17.0054 -151.658 3.76604 179.353
lowerback -20.3723 -1.93694 -7.52319
upperback 1.12512 -0.360055 -1.33168
thorax 12.848 -0.541942 2.69821
lowerneck -2.6663 -2.94855 -2.44389
upperneck 19.3348 -3.54396 5.16306
head 6.43249 -1.04526 1.88506
rclavicle -1.66979e-014 -4.77083e-015
rhumerus -41.9762 -10.1124 -78.171
rradius 47.4115
rwrist -9.44706
rhand -5.57953 -52.556
rfingers 7.12502
rthumb 20.2365 278.478
lclavicle -1.66979e-014 -4.77083e-015
lhumerus -25.6931 -8.04112 78.3069
lradius 35.431
lwrist -1.33666
lhand -20.9418 -9.78786
lfingers 7.12502
lthumb 5.43053 20.1226
rfemur -46.4404 1.80423 19.0911
rtibia 66.601
rfoot -374.955 -11.2722
rtoes -43.0457
lfemur -48.918 -6.53864 -20.0509
ltibia 33.2339
lfoot 350.441 4.70796
ltoes -29.1025
790
root 8.8055 24.7195 -17.048 -151.351 3.90964 179.287
lowerback -20.6867 -2.0187 -7.57222
upperback 0.972117 -0.423055 -1.30493
thorax 12.8596 -0.566118 2.73719
lowerneck -2.51315 -2.91451 -2.40913
upperneck 19.2882 -3.48932 5.13344
head 6.38748 -1.01948 1.87457
rclavicle -2.62396e-014 -1.74931e-014
rhumerus -42.0485 -10.4457 -78.0279
rradius 46.9244
rwrist -9.27248
rhand -5.70128 -52.0887
rfingers 7.12502
rthumb 20.1195 278.933
lclavicle -2.62396e-014 -1.74931e-014
lhumerus -25.8004 -7.81396 78.2833
lradius 35.5408
lwrist -1.31256
lhand -20.7639 -9.65285
lfingers 7.12502
lthumb 5.60226 20.2531
rfemur -47.6611 2.19513 18.869
rtibia 67.151
rfoot -376.221 -10.9724
rtoes -43.1275
lfemur -48.6509 -6.5086 -20.1778
ltibia 32.4551
lfoot 350.61 4.81749
ltoes -29.7841
791
root 8.79314 24.7549 -17.087 -151.381 4.10201 179.143
lowerback -20.819 -2.03502 -7.65858
upperback 1.04076 -0.401388 -1.34061
thorax 13.0151 -0.566956 2.75029
lowerneck -2.33607 -2.90659 -2.54829
upperneck 19.0976 -3.50119 5.31068
head 6.30154 -1.03102 1.95381
rclavicle 2.38542e-015 3.18055e-015
rhumerus -42.1934 -10.7088 -77.9826
rradius 46.8712
rwrist -9.46891
rhand -6.11754 -51.7718
rfingers 7.12502
rthumb 19.7194 279.208
lclavicle 2.38542e-015 3.18055e-015
lhumerus -25.6951 -7.73133 78.2893
lradius 35.5505
lwrist -1.22306
lhand -20.6305 -9.50539
lfingers 7.12502
lthumb 5.73111 20.3971
rfemur -48.5568 2.57147 18.5337
rtibia 67.539
rfoot -377.207 -10.8037
rtoes -43.0423
lfemur -47.989 -6.57214 -20.4128
ltibia 31.6116
lfoot 350.764 4.96211
ltoes -29.5273
792
root 8.77589 24.7856 -17.1372 -151.545 4.1408 179.306
lowerback -20.767 -2.07652 -7.42427
upperback 1.04152 -0.544334 -1.22969
thorax 12.9971 -0.625063 2.6969
lowerneck -2.17605 -2.79318 -2.53855
upperneck 19.1204 -3.32724 5.27044
head 6.27266 -0.945945 1.95239
rclavicle 3.57812e-015 -4.13472e-014
rhumerus -42.2986 -10.8019 -77.8479
rradius 46.3558
rwrist -9.39243
rhand -5.99139 -51.6133
rfingers 7.12502
rthumb 19.8406 279.379
lclavicle 3.57812e-015 -4.13472e-014
lhumerus -25.9229 -7.53543 78.3057
lradius 35.5237
lwrist -1.01429
lhand -20.7311 -9.71719
lfingers 7.12502
lthumb 5.63396 20.1879
rfemur -49.0737 2.92386 18.5805
rtibia 67.6254
rfoot -378.016 -10.7907
rtoes -43.3752
lfemur -47.0941 -6.70107 -20.2876
ltibia 30.6993
lfoot 350.91 5.2044
ltoes -29.763
793
root 8.76126 24.815 -17.1837 -151.756 4.07144 179.742
lowerback -20.6962 -1.97303 -6.84825
upperback 1.13552 -0.60193 -1.04534
thorax 13.0604 -0.63467 2.55706
lowerneck -2.39816 -2.71797 -2.46476
upperneck 19.2192 -3.21112 5.11258
head 6.33446 -0.894281 1.89538
rclavicle 4.77083e-015 -1.59028e-014
rhumerus -42.5713 -11.0408 -77.6493
rradius 46.5416
rwrist -9.16475
rhand -5.64721 -52.0912
rfingers 7.12502
rthumb 20.1715 278.936
lclavicle 4.77083e-015 -1.59028e-014
lhumerus -25.922 -7.31523 78.3795
lradius 35.4913
lwrist -1.04925
lhand -21.0495 -9.99321
lfingers 7.12502
lthumb 5.32659 19.9198
rfemur -49.3126 3.42097 18.9392
rtibia 67.3267
rfoot -378.785 -10.8083
rtoes -43.4741
lfemur -46.2532 -6.70541 -19.8118
ltibia 29.9025
lfoot 351.071 5.43881
ltoes -30.1696
794
root 8.75196 24.8506 -17.2235 -151.878 4.34887 179.498
lowerback -20.6113 -1.99448 -7.07222
upperback 1.11033 -0.571842 -1.09423
thorax 12.9834 -0.629181 2.64031
lowerneck -2.39732 -2.72577 -2.55513
upperneck 19.2955 -3.20986 5.11267
head 6.36011 -0.896503 1.91158
rclavicle 1.23246e-014 -2.22639e-014
rhumerus -42.6708 -11.231 -77.5305
rradius 46.0849
rwrist -9.09525
rhand -5.79 -51.8155
rfingers 7.12502
rthumb 20.0342 279.197
lclavicle 1.23246e-014 -2.22639e-014
lhumerus -26.0047 -7.25281 78.4105
lradius 35.4463
lwrist -1.1249
lhand -21.2334 -9.91854
lfingers 7.12502
lthumb 5.149 19.9989
rfemur -49.8271 3.82436 18.4144
rtibia 66.9277
rfoot -379.33 -10.8388
rtoes -43.373
lfemur -45.5585 -6.76127 -20.1637
ltibia 29.1627
lfoot 351.227 5.61338
ltoes -30.1875
795
root 8.73753 24.8797 -17.2662 -152.052 4.40728 179.687
lowerback -20.5589 -1.99966 -6.87638
upperback 1.13644 -0.664725 -0.933572
thorax 12.99 -0.671961 2.68013
lowerneck -2.45226 -2.617 -2.5717
upperneck 19.3626 -3.04112 5.01473
head 6.383 -0.821058 1.89391
rclavicle 8.74653e-015 -5.56597e-015
rhumerus -42.499 -11.0606 -77.434
rradius 45.1616
rwrist -9.40014
rhand -6.37308 -51.1012
rfingers 7.12502
rthumb 19.4737 279.854
lclavicle 8.74653e-015 -5.56597e-015
lhumerus -26.1711 -7.11156 78.5245
lradius 35.4825
lwrist -1.01421
lhand -21.0321 -9.59207
lfingers 7.12502
lthumb 5.34335 20.3206
rfemur -50.075 4.22826 18.4592
rtibia 66.2768
rfoot -379.831 -10.9644
rtoes -43.3596
lfemur -44.8312 -6.7683 -20.0202
ltibia 28.5274
lfoot 351.307 5.75319
ltoes -29.7299
796
root 8.72662 24.9071 -17.3102 -151.976 4.50974 179.697
lowerback -20.6969 -2.00711 -6.88789
upperback 1.04142 -0.672949 -0.839499
thorax 12.9613 -0.676403 2.79067
lowerneck -2.37604 -2.57885 -2.58223
upperneck 19.3642 -2.97516 4.97578
head 6.36717 -0.791291 1.88823
rclavicle 6.16232e-015 3.18055e-014
rhumerus -42.9868 -10.9815 -77.3237
rradius 45.5025
rwrist -9.73195
rhand -6.77567 -50.9914
rfingers 7.12502
rthumb 19.0866 279.925
lclavicle 6.16232e-015 3.18055e-014
lhumerus -26.4772 -7.04414 78.6728
lradius 35.6171
lwrist -0.812462
lhand -20.8316 -9.29822
lfingers 7.12502
lthumb 5.53692 20.6094
rfemur -50.5862 4.56508 18.2903
rtibia 65.5404
rfoot -380.697 -11.2639
rtoes -43.1422
lfemur -44.4015 -6.77149 -20.0695
ltibia 27.9284
lfoot 351.377 5.83896
ltoes -29.3146
797
root 8.71695 24.9314 -17.3548 -151.883 4.60775 179.608
lowerback -21.0276 -2.00217 -6.91115
upperback 1.09346 -0.625591 -0.853354
thorax 13.2084 -0.663234 2.79958
lowerneck -2.49735 -2.60106 -2.56278
upperneck 19.3594 -3.01966 4.99812
head 6.38858 -0.811785 1.88798
rclavicle 2.64384e-014 1.19271e-014
rhumerus -43.3339 -11.5269 -77.1925
rradius 46.3241
rwrist -9.32492
rhand -6.18381 -51.6778
rfingers 7.12502
rthumb 19.6557 279.296
lclavicle 2.64384e-014 1.19271e-014
lhumerus -26.4332 -7.04389 78.7369
lradius 35.5591
lwrist -0.700882
lhand -20.975 -9.24705
lfingers 7.12502
lthumb 5.39849 20.6642
rfemur -51.0553 4.85208 17.9775
rtibia 64.5523
rfoot -380.864 -11.7452
rtoes -44.6064
lfemur -43.9435 -6.81457 -20.2377
ltibia 27.2249
lfoot 351.535 5.90125
ltoes -29.5569
798
root 8.70724 24.9535 -17.402 -151.909 4.77763 179.629
lowerback -21.2071 -1.99026 -6.83349
upperback 1.13937 -0.613901 -0.851299
thorax 13.3629 -0.658779 2.75899
lowerneck -2.54797 -2.59175 -2.61541
upperneck 19.3941 -3.00865 5.02273
head 6.40917 -0.807881 1.9053
rclavicle -4.96962e-015 1.03368e-014
rhumerus -43.0686 -11.3113 -77.3606
rradius 45.6279
rwrist -9.42448
rhand -5.85195 -52.1724
rfingers 7.12502
rthumb 19.9747 278.834
lclavicle -4.96962e-015 1.03368e-014
lhumerus -26.4064 -7.0011 78.746
lradius 35.3379
lwrist -0.869415
lhand -21.2405 -9.49308
lfingers 7.12502
lthumb 5.1421 20.4245
rfemur -51.2625 5.2759 17.7308
rtibia 63.2876
rfoot -381.139 -12.035
rtoes -44.6442
lfemur -43.2443 -6.78963 -20.3007
ltibia 26.3329
lfoot 351.744 6.04503
ltoes -29.7234
799
root 8.69791 24.9769 -17.4442 -151.976 4.80311 179.776
lowerback -21.1773 -2.00845 -6.64082
upperback 1.12415 -0.707348 -0.764295
thorax 13.334 -0.692994 2.71766
lowerneck -2.66123 -2.51659 -2.48955
upperneck 19.5439 -2.88356 4.86054
head 6.46776 -0.744271 1.84091
rclavicle -6.55989e-015 -2.46493e-014
rhumerus -43.0841 -11.2523 -77.3968
rradius 45.2257
rwrist -9.35788
rhand -6.02302 -52.0113
rfingers 7.12502
rthumb 19.8102 278.978
lclavicle -6.55989e-015 -2.46493e-014
lhumerus -26.5034 -6.76811 78.7413
lradius 35.1301
lwrist -1.23557
lhand -21.2273 -9.67397
lfingers 7.12502
lthumb 5.15491 20.2433
rfemur -51.2591 5.67095 17.6688
rtibia 61.7875
rfoot -381.452 -12.3155
rtoes -44.0881
lfemur -42.5645 -6.78217 -20.1961
ltibia 25.5238
lfoot 351.935 6.16509
ltoes -29.8768
